<svg width="207" height="91" viewBox="0 0 207 91" fill="none" xmlns="http://www.w3.org/2000/svg">
<path d="M49.3465 25.6506C44.4702 25.6506 41.3494 22.3348 41.3494 18.7263C41.3494 16.2882 42.8122 14.7278 45.738 14.7278C46.9083 14.7278 48.0786 15.0204 49.0539 15.4105C49.444 15.6055 50.0291 15.508 50.4192 15.1179C51.0044 14.5327 51.297 13.7525 51.297 12.6797C51.297 10.9243 50.4192 7.60842 43.885 7.60842C26.8181 7.60842 13.5546 30.3319 13.5546 47.6914C13.5546 57.5415 17.8457 62.5153 25.0626 62.5153C31.9869 62.5153 41.2518 57.9316 45.9331 44.6681C46.2256 43.9854 47.2009 43.8879 47.4935 44.5706C48.6638 46.7162 49.1514 48.8617 49.1514 51.2023C49.1514 61.6376 39.789 72.3654 23.4047 72.3654C11.6041 72.3654 0.973801 66.8064 0.973801 49.6419C0.973801 25.4556 22.1368 0.294006 43.2024 0.294006C53.7351 0.294006 60.1718 6.63317 60.1718 13.655C60.1718 19.3115 55.9782 25.6506 49.3465 25.6506Z" fill="white"/>
<path d="M84.0869 9.65646C84.0869 15.8981 79.4057 23.6026 76.1873 29.9418L74.5294 33.1601C74.4319 33.3552 74.7244 33.6477 74.9195 33.4527C78.4304 31.0145 82.624 28.9665 86.4275 28.9665C90.7186 28.9665 95.1073 31.4046 95.1073 37.2562C95.1073 40.2795 93.937 43.2052 92.3765 46.0335L86.6225 56.5662C84.8671 59.7846 83.9894 61.1499 83.9894 62.6128C83.9894 64.2707 85.0621 64.5633 86.4275 64.5633C87.4027 64.5633 88.378 64.4658 89.5483 64.1732C90.5236 63.8806 91.3038 64.7584 91.0112 65.6361C90.3285 68.2693 87.5003 71.9753 80.1859 71.9753C76.2848 71.9753 72.969 70.9025 72.969 65.7336C72.969 63.1004 73.8467 60.1747 77.3576 53.933L83.2092 43.4003C84.0869 41.8399 84.7696 40.6696 84.7696 39.2067C84.7696 37.4512 83.7943 35.9883 81.6487 35.9883C77.3576 35.9883 70.4333 41.8399 67.0199 48.0815L56.1946 69.2446C55.707 70.3173 54.5366 71 53.3663 71H46.8321C45.9544 71 45.3692 70.0248 45.7593 69.2446L68.1902 25.2605C71.7987 18.1412 73.7492 13.7525 73.7492 9.4614C73.7492 6.92574 73.0665 5.17028 72.2863 3.51235C71.8962 2.63462 72.4813 1.65936 73.4566 1.56184C81.7463 0.976682 84.0869 5.17028 84.0869 9.65646Z" fill="white"/>
<path d="M113.907 29.9418H120.441C121.319 29.9418 121.904 30.917 121.416 31.6972L107.86 56.5662C106.202 59.6871 105.91 60.9549 105.91 62.1252C105.91 64.2707 107.568 64.5633 109.421 64.5633C110.493 64.5633 111.566 64.3683 112.639 63.8806C113.419 63.5881 114.199 64.3683 113.907 65.1485C112.932 67.8792 109.616 71.9753 103.667 71.9753C99.8632 71.9753 95.4745 70.6099 95.4745 64.7584C95.4745 61.2475 96.6448 58.0291 98.7904 53.933L110.981 31.6972C111.566 30.6244 112.737 29.9418 113.907 29.9418ZM130.876 12.5822C130.876 16.3857 127.658 20.9694 123.464 20.9694C120.636 20.9694 119.173 19.214 119.173 15.9956C119.173 12.0946 122.489 7.41337 126.683 7.41337C129.511 7.41337 130.876 9.26636 130.876 12.5822Z" fill="white"/>
<path d="M129.946 66.6114L118.828 89.0422C118.34 90.115 117.17 90.7977 116 90.7977H109.368C108.49 90.7977 107.905 89.8224 108.295 89.0422L128.581 48.3741C129.946 45.5458 131.409 42.23 131.409 40.1819C131.409 38.2314 130.043 37.2562 128.093 37.2562C127.313 37.2562 126.533 37.4512 125.752 37.8413C125.07 38.1339 124.289 37.5488 124.485 36.7686C125.07 34.0378 127.508 29.9418 133.067 29.9418C136.968 29.9418 140.771 32.0873 140.771 38.9141C140.771 44.4731 138.236 49.9345 136.675 53.0553L133.262 59.8821C133.067 60.3697 133.164 60.9549 133.554 61.345C135.017 62.8079 137.26 64.0757 139.991 64.0757C149.061 64.0757 154.913 49.9345 154.913 42.7176C154.913 38.8166 153.157 36.7686 149.646 36.7686C148.086 36.7686 146.525 37.1587 145.16 38.1339C144.575 38.6215 143.697 38.1339 143.697 37.3537C143.697 33.1601 146.72 28.869 153.255 28.869C159.691 28.869 165.445 32.9651 165.445 42.0349C165.445 55.2009 153.06 71.7802 140.869 71.7802C135.895 71.7802 132.969 69.147 131.019 66.5138C130.726 66.1237 130.239 66.2213 129.946 66.6114Z" fill="white"/>
<path d="M172.402 18.5313C169.476 17.9461 167.623 15.8006 167.623 13.1674C167.623 9.94903 170.256 6.92574 174.352 6.92574C178.838 6.92574 181.667 10.0466 181.667 14.7278C181.667 21.5546 174.742 27.6012 170.549 30.2343C169.573 30.8195 168.306 30.8195 167.33 30.2343L166.745 29.7467C165.965 29.2591 165.965 28.1863 166.648 27.6012C169.573 25.3581 172.207 22.3348 173.084 19.7991C173.279 19.3115 173.084 18.6288 172.402 18.5313Z" fill="white"/>
<path d="M164.559 60.5648C164.559 56.5662 167.485 53.3479 170.898 53.3479C174.117 53.3479 176.262 55.786 176.262 58.6143C176.262 60.8574 174.897 62.5153 173.239 63.5881C172.849 63.8806 172.849 64.4658 173.141 64.7584C174.507 65.7336 176.262 66.2213 178.213 66.2213C183.479 66.2213 186.892 63.8806 186.6 58.6143C186.307 52.8603 177.433 48.179 177.433 40.7671C177.433 33.9403 183.187 27.7962 192.939 27.7962C201.034 27.7962 206.593 32.3799 206.593 38.0364C206.593 40.572 204.837 43.5953 201.131 43.5953C200.058 43.5953 199.181 42.9127 199.083 41.8399C198.791 36.9636 195.865 34.4279 192.744 34.4279C189.136 34.4279 187.283 36.671 187.283 39.7918C187.283 44.4731 197.133 49.9345 197.133 59.1994C197.133 67.5866 188.941 73.1456 179.871 73.1456C172.654 73.1456 164.559 69.0495 164.559 60.5648Z" fill="white"/>
</svg>
